# xmcd CD database file
#
# Track frame offsets:
#	150
#	30757
#	61171
#	87216
#	121675
#	151342
#	168349
#	196450
#	224478
#	260048
#	281347
#
# Disc length: 4200 seconds
#
# Revision: 0
# Processed by: cddbd v1.5.2PL0 Copyright (c) Steve Scherf et al.
# Submitted via: CDex 1.70beta2
#
DISCID=8d10660b
DTITLE=;Milt Jackson - bags of soul - 3 bright blues
DYEAR=2007
DGENRE=Jazz
TTITLE0=Milt Jackson Quintet - Come Rain Or Come Shine
TTITLE1=Milt Jackson Quintet - They Can't Take That Away From Me
TTITLE2=Milt Jackson Quintet - Wild Man
TTITLE3=Milt Jackson Quintet - Soulful
TTITLE4=Milt Jackson Quintet - Fred's Mood 
TTITLE5=Milt Jackson Quintet - Flamingo
TTITLE6=Milt Jackson Sextet - Bright Blues
TTITLE7=Milt Jackson Quintet - How High The Moon
TTITLE8=Milt Jackson Quintet - Lover
TTITLE9=Milt Jackson Quartet - Can't Help Lovin' That Man
TTITLE10=Milt Jackson Quintet - The Lady Is A Tramp
EXTD=YEAR: 2007
EXTT0=
EXTT1=
EXTT2=
EXTT3=
EXTT4=
EXTT5=
EXTT6=
EXTT7=
EXTT8=
EXTT9=
EXTT10=
PLAYORDER=
